<svg width="800" height="600" viewBox="0 0 800 600" fill="none" xmlns="http://www.w3.org/2000/svg">
  <!-- Background Elements -->
  <circle cx="400" cy="300" r="250" fill="#EFF6FF" />
  <circle cx="150" cy="150" r="100" fill="#DBEAFE" opacity="0.5" />
  <circle cx="650" cy="450" r="120" fill="#ECFDF5" opacity="0.6" />
  
  <!-- Device Frame -->
  <rect x="250" y="150" width="300" height="200" rx="10" fill="#1E40AF" />
  <rect x="260" y="160" width="280" height="180" rx="5" fill="#FFFFFF" />
  
  <!-- Screen Content -->
  <rect x="280" y="180" width="240" height="20" rx="4" fill="#3B82F6" opacity="0.7" />
  <rect x="280" y="210" width="180" height="10" rx="2" fill="#64748B" opacity="0.5" />
  <rect x="280" y="230" width="160" height="10" rx="2" fill="#64748B" opacity="0.5" />
  <rect x="280" y="250" width="200" height="10" rx="2" fill="#64748B" opacity="0.5" />
  
  <rect x="280" y="280" width="80" height="30" rx="4" fill="#3B82F6" />
  <rect x="370" y="280" width="80" height="30" rx="4" fill="#10B981" />
  
  <!-- Mobile Device -->
  <rect x="400" y="320" width="100" height="180" rx="10" fill="#1E40AF" />
  <rect x="410" y="330" width="80" height="160" rx="5" fill="#FFFFFF" />
  
  <!-- Mobile Screen Content -->
  <rect x="420" y="350" width="60" height="10" rx="2" fill="#3B82F6" opacity="0.7" />
  <rect x="420" y="370" width="40" height="5" rx="1" fill="#64748B" opacity="0.5" />
  <rect x="420" y="380" width="50" height="5" rx="1" fill="#64748B" opacity="0.5" />
  <rect x="420" y="390" width="45" height="5" rx="1" fill="#64748B" opacity="0.5" />
  
  <rect x="420" y="410" width="25" height="15" rx="2" fill="#3B82F6" />
  <rect x="450" y="410" width="25" height="15" rx="2" fill="#10B981" />
  
  <!-- Decorative Elements -->
  <circle cx="300" cy="450" r="30" fill="#3B82F6" opacity="0.2" />
  <circle cx="500" cy="150" r="25" fill="#10B981" opacity="0.2" />
  <circle cx="200" cy="250" r="20" fill="#3B82F6" opacity="0.3" />
  <circle cx="600" cy="350" r="15" fill="#10B981" opacity="0.3" />
  
  <!-- Abstract Lines -->
  <path d="M150 400 Q 250 500, 400 450 T 650 500" stroke="#3B82F6" stroke-width="2" opacity="0.3" />
  <path d="M200 150 Q 300 100, 400 150 T 600 100" stroke="#10B981" stroke-width="2" opacity="0.3" />
</svg>