<svg width="200" height="50" viewBox="0 0 200 50" fill="none" xmlns="http://www.w3.org/2000/svg">
  <path d="M30.5 10L50 40H11L30.5 10Z" fill="#3B82F6"/>
  <path d="M30.5 20L40 40H21L30.5 20Z" fill="#10B981"/>
  <path d="M65.032 36V14.8H69.256L78.472 28.592H76.28L85.352 14.8H89.576L89.72 36H85.064L85.064 22.352H86.104L78.472 33.808H76.136L68.504 22.352H69.544V36H65.032Z" fill="#1E293B"/>
  <path d="M94.0479 36V14.8H98.5599V32.192H109.64V36H94.0479Z" fill="#1E293B"/>
  <path d="M118.888 36.288C116.6 36.288 114.696 35.728 113.176 34.608C111.656 33.488 110.584 31.904 109.96 29.856L113.896 28.304C114.296 29.616 114.936 30.624 115.816 31.328C116.696 32.032 117.72 32.384 118.888 32.384C119.864 32.384 120.648 32.16 121.24 31.712C121.832 31.264 122.128 30.656 122.128 29.888C122.128 29.248 121.928 28.736 121.528 28.352C121.128 27.968 120.6 27.664 119.944 27.44C119.288 27.216 118.376 26.96 117.208 26.672C115.624 26.288 114.328 25.904 113.32 25.52C112.312 25.136 111.448 24.528 110.728 23.696C110.008 22.864 109.648 21.728 109.648 20.288C109.648 19.088 109.976 18.032 110.632 17.12C111.288 16.208 112.2 15.504 113.368 15.008C114.536 14.512 115.864 14.264 117.352 14.264C119.448 14.264 121.176 14.744 122.536 15.704C123.896 16.664 124.856 18 125.416 19.712L121.528 21.264C121.208 20.224 120.696 19.44 119.992 18.912C119.288 18.384 118.408 18.12 117.352 18.12C116.44 18.12 115.704 18.336 115.144 18.768C114.584 19.2 114.304 19.776 114.304 20.496C114.304 21.088 114.488 21.568 114.856 21.936C115.224 22.304 115.704 22.592 116.296 22.8C116.888 23.008 117.736 23.248 118.84 23.52C120.488 23.904 121.832 24.296 122.872 24.696C123.912 25.096 124.8 25.728 125.536 26.592C126.272 27.456 126.64 28.64 126.64 30.144C126.64 31.344 126.304 32.416 125.632 33.36C124.96 34.304 124.024 35.04 122.824 35.568C121.624 36.048 120.312 36.288 118.888 36.288Z" fill="#1E293B"/>
  <path d="M129.347 36V14.8H145.651V18.608H133.859V23.392H144.323V27.2H133.859V32.192H145.651V36H129.347Z" fill="#1E293B"/>
  <path d="M148.319 36V14.8H157.871C159.743 14.8 161.343 15.152 162.671 15.856C163.999 16.56 165.007 17.536 165.695 18.784C166.383 20.032 166.727 21.456 166.727 23.056C166.727 24.656 166.383 26.08 165.695 27.328C165.007 28.576 163.999 29.552 162.671 30.256C161.343 30.96 159.743 31.312 157.871 31.312H152.831V36H148.319ZM152.831 27.504H157.583C158.879 27.504 159.855 27.152 160.511 26.448C161.167 25.744 161.495 24.736 161.495 23.424V22.688C161.495 21.376 161.167 20.368 160.511 19.664C159.855 18.96 158.879 18.608 157.583 18.608H152.831V27.504Z" fill="#1E293B"/>
  <path d="M169.08 36V14.8H173.592V36H169.08Z" fill="#1E293B"/>
  <path d="M177.336 36V14.8H181.848V32.192H192.928V36H177.336Z" fill="#1E293B"/>
</svg>